<svg xmlns="http://www.w3.org/2000/svg" viewBox="0 0 164 209"><defs><style>.a{fill:none;stroke:#10b981;stroke-linecap:round;stroke-linejoin:round;stroke-width:2px;}</style></defs><polygon class="a" points="64 19 64 37 55 46 28 55 28 37 64 19"/><polygon class="a" points="64 19 46 28 28 10 64 19"/><polygon class="a" points="82 19 82 46 64 1 82 19"/><polygon class="a" points="100 10 100 46 99.42 45.13 82 19 100 10"/><polygon class="a" points="145 46 128.1 50.22 100.23 11.13 100 10 145 46"/><polygon class="a" points="163 91 133.47 91.6 145 46 145.34 46.85 163 91"/><polygon class="a" points="163 91 145 127 133.47 91.6 163 91"/><polygon class="a" points="145 127 127 163 109 142.32 118 123.66 133.47 91.6 145 127"/><polygon class="a" points="91 172 55 208 61.94 173.28 73 118 80.87 151.34 91 172"/><polygon class="a" points="118 73 118 123.66 109 142.32 91 172 80.87 151.34 73 118 85.47 121.21 103.94 71.51 109 55 118 73"/><polygon class="a" points="55 46 16.19 111.43 1 109 28 55 55 46"/><polygon class="a" points="16.19 111.43 8.53 139.09 1 136 1 109 16.19 111.43"/><polygon class="a" points="20.06 153.47 19 154 8.53 139.09 16.19 111.43 18.36 135 20.06 153.47"/><polygon class="a" points="19 154 1 136 8.53 139.09 19 154"/><polygon class="a" points="55 118 37 145 20.06 153.47 18.36 135 55 118"/><polygon class="a" points="100 46 99.53 45.76 99.42 45.13 100 46"/><polygon class="a" points="127 163 91 172 109 142.32 127 163"/><polygon class="a" points="73 55 64 46 64 1 73 55"/><polygon class="a" points="82 46 73 55 64 1 82 46"/><polygon class="a" points="109 55 103.94 71.51 99.53 45.76 100 46 109 55"/><polygon class="a" points="99.53 45.76 82 37 82 19 99.42 45.13 99.53 45.76"/><polygon class="a" points="109 55 100 46 100 10 100.23 11.13 109 55"/><polygon class="a" points="145 46 133.47 91.6 118 73 145 46"/><polygon class="a" points="128.1 50.22 109 55 100.23 11.13 128.1 50.22"/><polygon class="a" points="133.47 91.6 118 123.66 118 73 133.47 91.6"/><polygon class="a" points="145 46 118 73 109 55 128.1 50.22 145 46"/><path class="a" d="M458.53,233.76,441,225v9l-9,9-9-9v-9l-9,9-38.81,65.43L377.36,323,414,306h18l12.47,3.21,18.47-49.7Zm-34.91,30.09-12.09,3.83L415,256.53l12.48-9Z" transform="translate(-359 -188)"/><polygon class="a" points="68.5 59.51 64.62 75.85 52.53 79.68 56.02 68.53 68.5 59.51"/><line class="a" x1="20.11" y1="154" x2="20.06" y2="153.47"/><line class="a" x1="64.62" y1="75.85" x2="80.87" y2="99.94"/></svg>